<mxfile host="app.diagrams.net" agent="Mozilla/5.0 (Windows NT 10.0; Win64; x64; rv:129.0) Gecko/20100101 Firefox/129.0" version="24.7.7">
  <diagram id="tDPf8CNvzOaNMvIxZvwo" name="Seite-1">
    <mxGraphModel dx="1134" dy="484" grid="1" gridSize="10" guides="1" tooltips="1" connect="1" arrows="1" fold="1" page="1" pageScale="1" pageWidth="827" pageHeight="1169" math="0" shadow="0">
      <root>
        <mxCell id="0" />
        <mxCell id="1" parent="0" />
        <mxCell id="lzmcIZGoqttrfyCk76lP-21" style="edgeStyle=orthogonalEdgeStyle;rounded=0;orthogonalLoop=1;jettySize=auto;html=1;exitX=0.5;exitY=1;exitDx=0;exitDy=0;entryX=0.5;entryY=0;entryDx=0;entryDy=0;strokeWidth=3;fontSize=20;curved=1;fillColor=#dae8fc;strokeColor=#000000;" parent="1" source="lzmcIZGoqttrfyCk76lP-19" target="lzmcIZGoqttrfyCk76lP-20" edge="1">
          <mxGeometry relative="1" as="geometry" />
        </mxCell>
        <mxCell id="lzmcIZGoqttrfyCk76lP-19" value="" style="rounded=0;whiteSpace=wrap;html=1;fillColor=#CCCCCC;fontColor=#333333;strokeColor=none;" parent="1" vertex="1">
          <mxGeometry x="240" y="40" width="120" height="53" as="geometry" />
        </mxCell>
        <mxCell id="X_1ddgbnGcCbuA_kLiaL-40" style="edgeStyle=orthogonalEdgeStyle;rounded=0;orthogonalLoop=1;jettySize=auto;html=1;exitX=0.5;exitY=1;exitDx=0;exitDy=0;entryX=0.25;entryY=0;entryDx=0;entryDy=0;curved=1;fillColor=#dae8fc;strokeColor=#000000;strokeWidth=3;" parent="1" source="lzmcIZGoqttrfyCk76lP-20" target="lzmcIZGoqttrfyCk76lP-22" edge="1">
          <mxGeometry relative="1" as="geometry">
            <Array as="points">
              <mxPoint x="180" y="360" />
              <mxPoint x="270" y="360" />
            </Array>
          </mxGeometry>
        </mxCell>
        <mxCell id="lzmcIZGoqttrfyCk76lP-20" value="" style="rounded=0;whiteSpace=wrap;html=1;fillColor=#CCCCCC;fontColor=#333333;strokeColor=none;" parent="1" vertex="1">
          <mxGeometry x="120" y="270" width="120" height="53" as="geometry" />
        </mxCell>
        <mxCell id="lzmcIZGoqttrfyCk76lP-22" value="" style="rounded=0;whiteSpace=wrap;html=1;fillColor=#CCCCCC;fontColor=#333333;strokeColor=none;" parent="1" vertex="1">
          <mxGeometry x="240" y="480" width="120" height="53" as="geometry" />
        </mxCell>
        <mxCell id="ByhMSCV3GBMhlp98p_qF-2" value="" style="rounded=0;whiteSpace=wrap;html=1;fillColor=#CCCCCC;fontColor=#333333;strokeColor=none;" vertex="1" parent="1">
          <mxGeometry x="590" y="40" width="120" height="53" as="geometry" />
        </mxCell>
        <mxCell id="ByhMSCV3GBMhlp98p_qF-4" value="" style="rounded=0;whiteSpace=wrap;html=1;fillColor=#CCCCCC;fontColor=#333333;strokeColor=none;" vertex="1" parent="1">
          <mxGeometry x="470" y="270" width="120" height="53" as="geometry" />
        </mxCell>
        <mxCell id="ByhMSCV3GBMhlp98p_qF-5" value="" style="rounded=0;whiteSpace=wrap;html=1;fillColor=#CCCCCC;fontColor=#333333;strokeColor=none;" vertex="1" parent="1">
          <mxGeometry x="590" y="480" width="120" height="53" as="geometry" />
        </mxCell>
        <mxCell id="ByhMSCV3GBMhlp98p_qF-6" style="edgeStyle=orthogonalEdgeStyle;rounded=0;orthogonalLoop=1;jettySize=auto;html=1;exitX=0.5;exitY=1;exitDx=0;exitDy=0;entryX=0.817;entryY=0.019;entryDx=0;entryDy=0;strokeWidth=3;fontSize=20;curved=1;fillColor=#dae8fc;strokeColor=#000000;entryPerimeter=0;" edge="1" parent="1" source="ByhMSCV3GBMhlp98p_qF-2" target="ByhMSCV3GBMhlp98p_qF-5">
          <mxGeometry relative="1" as="geometry">
            <mxPoint x="670" y="240" as="sourcePoint" />
            <mxPoint x="590" y="340" as="targetPoint" />
            <Array as="points">
              <mxPoint x="650" y="210" />
              <mxPoint x="688" y="210" />
            </Array>
          </mxGeometry>
        </mxCell>
        <mxCell id="ByhMSCV3GBMhlp98p_qF-10" style="edgeStyle=orthogonalEdgeStyle;rounded=0;orthogonalLoop=1;jettySize=auto;html=1;exitX=0.5;exitY=1;exitDx=0;exitDy=0;entryX=0.5;entryY=0;entryDx=0;entryDy=0;strokeWidth=3;fontSize=20;curved=1;fillColor=#dae8fc;strokeColor=#000000;" edge="1" parent="1" source="ByhMSCV3GBMhlp98p_qF-11" target="ByhMSCV3GBMhlp98p_qF-13">
          <mxGeometry relative="1" as="geometry" />
        </mxCell>
        <mxCell id="ByhMSCV3GBMhlp98p_qF-11" value="" style="rounded=0;whiteSpace=wrap;html=1;fillColor=#CCCCCC;fontColor=#333333;strokeColor=none;" vertex="1" parent="1">
          <mxGeometry x="920" y="40" width="120" height="53" as="geometry" />
        </mxCell>
        <mxCell id="ByhMSCV3GBMhlp98p_qF-12" style="edgeStyle=orthogonalEdgeStyle;rounded=0;orthogonalLoop=1;jettySize=auto;html=1;exitX=0.5;exitY=1;exitDx=0;exitDy=0;entryX=0.25;entryY=0;entryDx=0;entryDy=0;curved=1;fillColor=#dae8fc;strokeColor=#000000;strokeWidth=3;" edge="1" parent="1" source="ByhMSCV3GBMhlp98p_qF-13" target="ByhMSCV3GBMhlp98p_qF-14">
          <mxGeometry relative="1" as="geometry">
            <Array as="points">
              <mxPoint x="860" y="360" />
              <mxPoint x="950" y="360" />
            </Array>
          </mxGeometry>
        </mxCell>
        <mxCell id="ByhMSCV3GBMhlp98p_qF-13" value="" style="rounded=0;whiteSpace=wrap;html=1;fillColor=#CCCCCC;fontColor=#333333;strokeColor=none;" vertex="1" parent="1">
          <mxGeometry x="800" y="270" width="120" height="53" as="geometry" />
        </mxCell>
        <mxCell id="ByhMSCV3GBMhlp98p_qF-14" value="" style="rounded=0;whiteSpace=wrap;html=1;fillColor=#CCCCCC;fontColor=#333333;strokeColor=none;" vertex="1" parent="1">
          <mxGeometry x="920" y="480" width="120" height="53" as="geometry" />
        </mxCell>
        <mxCell id="ByhMSCV3GBMhlp98p_qF-15" style="edgeStyle=orthogonalEdgeStyle;rounded=0;orthogonalLoop=1;jettySize=auto;html=1;exitX=0.5;exitY=1;exitDx=0;exitDy=0;entryX=0.817;entryY=0.019;entryDx=0;entryDy=0;strokeWidth=3;fontSize=20;curved=1;fillColor=#dae8fc;strokeColor=#000000;entryPerimeter=0;" edge="1" parent="1" source="ByhMSCV3GBMhlp98p_qF-11" target="ByhMSCV3GBMhlp98p_qF-14">
          <mxGeometry relative="1" as="geometry">
            <mxPoint x="1000" y="240" as="sourcePoint" />
            <mxPoint x="920" y="340" as="targetPoint" />
            <Array as="points">
              <mxPoint x="980" y="210" />
              <mxPoint x="1018" y="210" />
            </Array>
          </mxGeometry>
        </mxCell>
        <mxCell id="ByhMSCV3GBMhlp98p_qF-19" value="" style="endArrow=none;html=1;rounded=0;strokeWidth=3;fillColor=#dae8fc;strokeColor=#000000;dashed=1;" edge="1" parent="1">
          <mxGeometry width="50" height="50" relative="1" as="geometry">
            <mxPoint x="410" y="530" as="sourcePoint" />
            <mxPoint x="410" y="40" as="targetPoint" />
          </mxGeometry>
        </mxCell>
        <mxCell id="ByhMSCV3GBMhlp98p_qF-20" value="" style="endArrow=none;html=1;rounded=0;strokeWidth=3;fillColor=#dae8fc;strokeColor=#000000;dashed=1;" edge="1" parent="1">
          <mxGeometry width="50" height="50" relative="1" as="geometry">
            <mxPoint x="770" y="530" as="sourcePoint" />
            <mxPoint x="770" y="40" as="targetPoint" />
          </mxGeometry>
        </mxCell>
      </root>
    </mxGraphModel>
  </diagram>
</mxfile>
